<svg width="195" height="48" viewBox="0 0 195 48" fill="none" xmlns="http://www.w3.org/2000/svg">
<path d="M65.1407 17.1354C66.1268 17.3164 66.9185 17.6714 67.5157 18.2004C68.1268 18.7293 68.4324 19.5367 68.4324 20.6225C68.4324 22.126 67.9046 23.1978 66.8491 23.8382C65.7935 24.4646 64.3143 24.7778 62.4115 24.7778H58.0781V10.3491H61.849C65.8213 10.3491 67.8074 11.5742 67.8074 14.0242C67.8074 14.8733 67.5505 15.5694 67.0366 16.1123C66.5227 16.6412 65.8907 16.9823 65.1407 17.1354ZM60.8282 12.3746V16.2793H62.5157C63.2796 16.2793 63.8837 16.1123 64.3282 15.7782C64.7726 15.4302 64.9949 14.9221 64.9949 14.2539C64.9949 13.5578 64.7588 13.0706 64.2865 12.7922C63.8282 12.5138 63.106 12.3746 62.1198 12.3746H60.8282ZM62.4323 22.7106C63.4462 22.7106 64.2171 22.5575 64.7449 22.2512C65.2865 21.945 65.5574 21.3673 65.5574 20.5181C65.5574 19.6968 65.3004 19.1052 64.7865 18.7433C64.2865 18.3813 63.599 18.2004 62.724 18.2004H60.8282V22.7106H62.4323Z" fill="#181A18"/>
<path d="M76.2092 13.4395C76.612 13.4395 76.98 13.4882 77.3134 13.5857L76.855 16.1749C76.5217 16.0914 76.1953 16.0496 75.8759 16.0496C75.2231 16.0496 74.7092 16.2863 74.3342 16.7596C73.9592 17.219 73.6605 17.9289 73.4383 18.8894V24.7778H70.7716V13.7318H73.0842L73.3342 15.9035C73.598 15.11 73.98 14.5044 74.48 14.0868C74.98 13.6553 75.5564 13.4395 76.2092 13.4395Z" fill="#181A18"/>
<path d="M82.8401 13.4186C84.4651 13.4186 85.729 13.9407 86.6318 14.9847C87.5485 16.0148 88.0068 17.4347 88.0068 19.2444C88.0068 20.3998 87.7985 21.423 87.3818 22.3139C86.9652 23.1909 86.3679 23.873 85.5902 24.3602C84.8124 24.8474 83.8887 25.091 82.8193 25.091C81.1943 25.091 79.9234 24.576 79.0067 23.5459C78.0901 22.5018 77.6317 21.068 77.6317 19.2444C77.6317 18.089 77.8401 17.0728 78.2567 16.1958C78.6734 15.3188 79.2706 14.6367 80.0484 14.1495C80.8401 13.6622 81.7707 13.4186 82.8401 13.4186ZM82.8401 15.4441C81.2429 15.4441 80.4443 16.7109 80.4443 19.2444C80.4443 20.5529 80.6387 21.5204 81.0276 22.1468C81.4304 22.7593 82.0276 23.0656 82.8193 23.0656C83.611 23.0656 84.2012 22.7524 84.5901 22.126C84.9929 21.4995 85.1943 20.539 85.1943 19.2444C85.1943 17.9498 84.9929 16.9962 84.5901 16.3837C84.2012 15.7573 83.6179 15.4441 82.8401 15.4441Z" fill="#181A18"/>
<path d="M103.965 13.7318L101.569 24.7778H98.2358L96.5691 16.1123L94.8608 24.7778H91.5899L89.1524 13.7318H91.8191L93.3607 22.815L95.2774 13.7318H98.0066L99.7566 22.815L101.403 13.7318H103.965Z" fill="#181A18"/>
<path d="M111.681 13.4186C112.667 13.4186 113.431 13.7179 113.973 14.3165C114.529 14.9012 114.806 15.7225 114.806 16.7805V24.7778H112.14V17.1981C112.14 16.5438 112.022 16.0844 111.785 15.8199C111.563 15.5554 111.23 15.4232 110.785 15.4232C110.327 15.4232 109.91 15.5694 109.535 15.8617C109.174 16.1401 108.82 16.5508 108.473 17.0937V24.7778H105.806V13.7318H108.119L108.327 15.1726C109.23 14.0033 110.348 13.4186 111.681 13.4186Z" fill="#181A18"/>
<path d="M132.245 24.7778H128.453L128.266 19.3697L128.245 18.4718C128.217 17.6366 128.203 17.0032 128.203 16.5716C128.203 15.5276 128.245 14.4836 128.328 13.4395L126.349 23.2744H122.703L120.599 13.4395C120.724 15.0682 120.787 16.502 120.787 17.741C120.787 18.4509 120.78 18.9938 120.766 19.3697L120.599 24.7778H116.807L117.87 10.2656H122.662L124.599 19.8917L126.349 10.2656H131.162L132.245 24.7778Z" fill="#181A18"/>
<path d="M138.83 13.2725C140.566 13.2725 141.927 13.7945 142.913 14.8385C143.899 15.8826 144.392 17.3442 144.392 19.2235C144.392 20.4207 144.17 21.4647 143.726 22.3556C143.281 23.2466 142.635 23.9356 141.788 24.4228C140.955 24.9101 139.969 25.1537 138.83 25.1537C137.094 25.1537 135.733 24.6317 134.746 23.5876C133.76 22.5436 133.267 21.0819 133.267 19.2026C133.267 18.0055 133.49 16.9614 133.934 16.0705C134.378 15.1796 135.017 14.4905 135.851 14.0033C136.698 13.5161 137.691 13.2725 138.83 13.2725ZM138.83 15.9661C138.233 15.9661 137.788 16.2306 137.496 16.7596C137.219 17.2746 137.08 18.089 137.08 19.2026C137.08 20.358 137.219 21.1933 137.496 21.7083C137.788 22.2095 138.233 22.46 138.83 22.46C139.427 22.46 139.865 22.2025 140.142 21.6875C140.434 21.1585 140.58 20.3372 140.58 19.2235C140.58 18.082 140.434 17.2538 140.142 16.7387C139.865 16.2236 139.427 15.9661 138.83 15.9661Z" fill="#181A18"/>
<path d="M152.871 13.2725C153.816 13.2725 154.559 13.5648 155.101 14.1495C155.642 14.7341 155.913 15.5554 155.913 16.6134V24.7778H152.205V17.2816C152.205 16.7944 152.135 16.4603 151.996 16.2793C151.857 16.0844 151.649 15.987 151.371 15.987C150.788 15.987 150.232 16.4116 149.705 17.2607V24.7778H145.996V13.6483H149.225L149.496 14.9012C149.996 14.3444 150.517 13.9337 151.059 13.6692C151.6 13.4047 152.205 13.2725 152.871 13.2725Z" fill="#181A18"/>
<path d="M162.167 13.2725C162.973 13.2725 163.737 13.3978 164.459 13.6483C165.195 13.8989 165.82 14.2399 166.334 14.6715L165.001 16.7178C164.112 16.161 163.216 15.8826 162.313 15.8826C161.924 15.8826 161.632 15.9452 161.438 16.0705C161.257 16.1819 161.167 16.342 161.167 16.5508C161.167 16.7317 161.216 16.8779 161.313 16.9893C161.41 17.1006 161.612 17.2259 161.917 17.3651C162.237 17.4904 162.737 17.6575 163.417 17.8663C164.556 18.2004 165.396 18.6389 165.938 19.1818C166.48 19.7107 166.751 20.4555 166.751 21.416C166.751 22.1677 166.528 22.8289 166.084 23.3997C165.653 23.9565 165.049 24.388 164.271 24.6943C163.507 25.0006 162.639 25.1537 161.667 25.1537C160.723 25.1537 159.834 25.0075 159 24.7152C158.181 24.4089 157.487 23.9913 156.917 23.4623L158.688 21.4786C159.119 21.8127 159.577 22.0772 160.063 22.2721C160.563 22.467 161.063 22.5645 161.563 22.5645C162.007 22.5645 162.348 22.4949 162.584 22.3556C162.834 22.2025 162.959 21.9798 162.959 21.6875C162.959 21.4647 162.903 21.2907 162.792 21.1654C162.695 21.0401 162.501 20.9218 162.209 20.8105C161.917 20.6852 161.417 20.5181 160.709 20.3093C158.556 19.669 157.48 18.4927 157.48 16.7805C157.48 16.1262 157.667 15.5346 158.042 15.0056C158.417 14.4627 158.952 14.0381 159.646 13.7318C160.355 13.4256 161.195 13.2725 162.167 13.2725Z" fill="#181A18"/>
<path d="M175.527 24.2349C175.097 24.5412 174.597 24.7709 174.027 24.924C173.458 25.0771 172.902 25.1537 172.361 25.1537C169.791 25.1537 168.506 23.7338 168.506 20.894V16.1958H167.069V13.6483H168.506V11.2888L172.215 10.8503V13.6483H174.736L174.361 16.1958H172.215V20.8522C172.215 21.3534 172.291 21.7083 172.444 21.9171C172.611 22.126 172.854 22.2304 173.173 22.2304C173.562 22.2304 173.937 22.126 174.298 21.9171L175.527 24.2349Z" fill="#181A18"/>
<path d="M186.007 19.0356C186.007 19.1191 185.986 19.5367 185.945 20.2884H179.153C179.25 21.1376 179.486 21.7223 179.861 22.0424C180.25 22.3487 180.799 22.5018 181.507 22.5018C181.924 22.5018 182.333 22.4252 182.736 22.2721C183.153 22.1051 183.604 21.8545 184.09 21.5204L185.59 23.5667C185.007 24.054 184.34 24.4437 183.59 24.7361C182.84 25.0145 182.028 25.1537 181.153 25.1537C179.264 25.1537 177.826 24.6247 176.84 23.5667C175.868 22.4949 175.382 21.061 175.382 19.2653C175.382 18.1377 175.583 17.1215 175.986 16.2167C176.403 15.3118 177.014 14.5949 177.82 14.0659C178.625 13.537 179.597 13.2725 180.736 13.2725C182.361 13.2725 183.646 13.7806 184.59 14.7968C185.535 15.7991 186.007 17.212 186.007 19.0356ZM182.361 17.9915C182.347 17.2538 182.222 16.683 181.986 16.2793C181.75 15.8756 181.354 15.6738 180.799 15.6738C180.285 15.6738 179.896 15.8547 179.632 16.2167C179.368 16.5786 179.201 17.212 179.132 18.1168H182.361V17.9915Z" fill="#181A18"/>
<path d="M193.876 13.3142C194.237 13.3142 194.612 13.3769 195.001 13.5022L194.397 17.0937C194.035 16.9823 193.702 16.9266 193.397 16.9266C192.772 16.9266 192.292 17.1424 191.959 17.5739C191.64 17.9915 191.39 18.6319 191.209 19.495V24.7778H187.501V13.6483H190.73L191.063 15.7573C191.285 15.0195 191.653 14.4279 192.167 13.9824C192.695 13.537 193.265 13.3142 193.876 13.3142Z" fill="#181A18"/>
<path d="M58.2344 40.3701V33.6882H62.4141V34.5561H59.2402V36.592H62.196V37.4566H59.2402V39.5022H62.4532V40.3701H58.2344Z" fill="#181A18"/>
<path d="M66.0592 35.3587V36.1417H63.2336V35.3587H66.0592ZM64.0084 40.3701V34.7779C64.0084 34.4647 64.0767 34.2048 64.2134 33.9982C64.3502 33.7894 64.5314 33.6338 64.7571 33.5316C64.9828 33.4272 65.228 33.375 65.4928 33.375C65.6881 33.375 65.8552 33.3913 65.9941 33.4239C66.133 33.4544 66.236 33.4827 66.3033 33.5088L66.0754 34.2983C66.0299 34.2853 65.9713 34.27 65.8997 34.2526C65.828 34.2331 65.7412 34.2233 65.6392 34.2233C65.4027 34.2233 65.2334 34.282 65.1314 34.3995C65.0316 34.5169 64.9817 34.6866 64.9817 34.9084V40.3701H64.0084Z" fill="#181A18"/>
<path d="M69.443 35.3587V36.1417H66.6174V35.3587H69.443ZM67.3922 40.3701V34.7779C67.3922 34.4647 67.4606 34.2048 67.5973 33.9982C67.734 33.7894 67.9152 33.6338 68.1409 33.5316C68.3666 33.4272 68.6118 33.375 68.8766 33.375C69.0719 33.375 69.239 33.3913 69.3779 33.4239C69.5168 33.4544 69.6199 33.4827 69.6871 33.5088L69.4593 34.2983C69.4137 34.2853 69.3551 34.27 69.2835 34.2526C69.2119 34.2331 69.1251 34.2233 69.0231 34.2233C68.7865 34.2233 68.6173 34.282 68.5153 34.3995C68.4154 34.5169 68.3655 34.6866 68.3655 34.9084V40.3701H67.3922Z" fill="#181A18"/>
<path d="M70.4472 40.3701V35.3587H71.4206V40.3701H70.4472ZM70.9388 34.5854C70.7695 34.5854 70.6241 34.5289 70.5026 34.4158C70.3832 34.3005 70.3235 34.1635 70.3235 34.0047C70.3235 33.8437 70.3832 33.7067 70.5026 33.5936C70.6241 33.4783 70.7695 33.4207 70.9388 33.4207C71.1081 33.4207 71.2524 33.4783 71.3717 33.5936C71.4933 33.7067 71.554 33.8437 71.554 34.0047C71.554 34.1635 71.4933 34.3005 71.3717 34.4158C71.2524 34.5289 71.1081 34.5854 70.9388 34.5854Z" fill="#181A18"/>
<path d="M74.8361 40.4712C74.3522 40.4712 73.9355 40.3614 73.5861 40.1417C73.2389 39.9198 72.972 39.6142 72.7853 39.2249C72.5987 38.8356 72.5054 38.3897 72.5054 37.8872C72.5054 37.3783 72.6009 36.9291 72.7918 36.5398C72.9828 36.1482 73.2519 35.8426 73.5991 35.623C73.9464 35.4033 74.3554 35.2934 74.8264 35.2934C75.2061 35.2934 75.5447 35.3641 75.842 35.5055C76.1393 35.6447 76.3791 35.8405 76.5614 36.0928C76.7459 36.3451 76.8555 36.6398 76.8902 36.9769H75.9429C75.8908 36.742 75.7715 36.5398 75.5848 36.3701C75.4004 36.2004 75.153 36.1156 74.8426 36.1156C74.5714 36.1156 74.3337 36.1874 74.1297 36.3309C73.9279 36.4723 73.7706 36.6746 73.6577 36.9378C73.5449 37.1988 73.4885 37.5077 73.4885 37.8644C73.4885 38.2298 73.5438 38.5452 73.6545 38.8105C73.7652 39.0759 73.9214 39.2815 74.1232 39.4272C74.3272 39.5729 74.567 39.6458 74.8426 39.6458C75.0271 39.6458 75.1942 39.6121 75.3439 39.5446C75.4959 39.475 75.6228 39.3761 75.7248 39.2477C75.829 39.1194 75.9017 38.965 75.9429 38.7844H76.8902C76.8555 39.1085 76.7502 39.3978 76.5744 39.6523C76.3986 39.9068 76.1632 40.1069 75.868 40.2526C75.5751 40.3984 75.2311 40.4712 74.8361 40.4712Z" fill="#181A18"/>
<path d="M77.931 40.3701V35.3587H78.9044V40.3701H77.931ZM78.4226 34.5854C78.2533 34.5854 78.1079 34.5289 77.9864 34.4158C77.867 34.3005 77.8074 34.1635 77.8074 34.0047C77.8074 33.8437 77.867 33.7067 77.9864 33.5936C78.1079 33.4783 78.2533 33.4207 78.4226 33.4207C78.5919 33.4207 78.7362 33.4783 78.8555 33.5936C78.9771 33.7067 79.0378 33.8437 79.0378 34.0047C79.0378 34.1635 78.9771 34.3005 78.8555 34.4158C78.7362 34.5289 78.5919 34.5854 78.4226 34.5854Z" fill="#181A18"/>
<path d="M82.3688 40.4712C81.8761 40.4712 81.4519 40.3657 81.096 40.1548C80.7422 39.9416 80.4688 39.6425 80.2756 39.2575C80.0847 38.8704 79.9892 38.4169 79.9892 37.897C79.9892 37.3837 80.0847 36.9313 80.2756 36.5398C80.4688 36.1482 80.7379 35.8426 81.0829 35.623C81.4302 35.4033 81.836 35.2934 82.3004 35.2934C82.5825 35.2934 82.856 35.3402 83.1207 35.4337C83.3855 35.5273 83.6231 35.6741 83.8336 35.8742C84.0441 36.0743 84.2101 36.3342 84.3317 36.6539C84.4532 36.9715 84.514 37.3576 84.514 37.8122V38.158H80.5393V37.4272H83.5602C83.5602 37.1705 83.5081 36.9432 83.4039 36.7453C83.2998 36.5452 83.1533 36.3875 82.9645 36.2722C82.7778 36.1569 82.5587 36.0993 82.3069 36.0993C82.0335 36.0993 81.7948 36.1667 81.5908 36.3016C81.3889 36.4343 81.2327 36.6083 81.122 36.8236C81.0135 37.0368 80.9592 37.2684 80.9592 37.5185V38.0895C80.9592 38.4245 81.0178 38.7094 81.135 38.9443C81.2544 39.1792 81.4204 39.3587 81.6331 39.4827C81.8458 39.6045 82.0942 39.6654 82.3785 39.6654C82.563 39.6654 82.7312 39.6393 82.8831 39.5871C83.035 39.5327 83.1663 39.4522 83.277 39.3456C83.3877 39.239 83.4723 39.1074 83.5309 38.9508L84.4521 39.1172C84.3783 39.3891 84.246 39.6273 84.055 39.8318C83.8662 40.034 83.6285 40.1917 83.3421 40.3048C83.0578 40.4158 82.7334 40.4712 82.3688 40.4712Z" fill="#181A18"/>
<path d="M86.5672 37.3946V40.3701H85.5939V35.3587H86.5282V36.1743H86.59C86.705 35.909 86.8851 35.6958 87.1304 35.5349C87.3778 35.3739 87.6892 35.2934 88.0646 35.2934C88.4053 35.2934 88.7037 35.3652 88.9598 35.5088C89.2159 35.6501 89.4145 35.8611 89.5555 36.1417C89.6966 36.4223 89.7671 36.7692 89.7671 37.1825V40.3701H88.7938V37.2999C88.7938 36.9367 88.6994 36.6529 88.5106 36.4484C88.3218 36.2418 88.0625 36.1385 87.7326 36.1385C87.5069 36.1385 87.3062 36.1874 87.1304 36.2853C86.9568 36.3831 86.819 36.5267 86.717 36.7159C86.6171 36.903 86.5672 37.1292 86.5672 37.3946Z" fill="#181A18"/>
<path d="M93.1786 40.4712C92.6947 40.4712 92.278 40.3614 91.9286 40.1417C91.5814 39.9198 91.3144 39.6142 91.1278 39.2249C90.9412 38.8356 90.8479 38.3897 90.8479 37.8872C90.8479 37.3783 90.9433 36.9291 91.1343 36.5398C91.3253 36.1482 91.5944 35.8426 91.9416 35.623C92.2889 35.4033 92.6979 35.2934 93.1689 35.2934C93.5486 35.2934 93.8872 35.3641 94.1845 35.5055C94.4818 35.6447 94.7216 35.8405 94.9039 36.0928C95.0884 36.3451 95.198 36.6398 95.2327 36.9769H94.2854C94.2333 36.742 94.114 36.5398 93.9273 36.3701C93.7429 36.2004 93.4955 36.1156 93.1851 36.1156C92.9139 36.1156 92.6762 36.1874 92.4722 36.3309C92.2704 36.4723 92.1131 36.6746 92.0002 36.9378C91.8874 37.1988 91.8309 37.5077 91.8309 37.8644C91.8309 38.2298 91.8863 38.5452 91.997 38.8105C92.1076 39.0759 92.2639 39.2815 92.4657 39.4272C92.6697 39.5729 92.9095 39.6458 93.1851 39.6458C93.3696 39.6458 93.5367 39.6121 93.6864 39.5446C93.8383 39.475 93.9653 39.3761 94.0673 39.2477C94.1715 39.1194 94.2442 38.965 94.2854 38.7844H95.2327C95.198 39.1085 95.0927 39.3978 94.9169 39.6523C94.7411 39.9068 94.5057 40.1069 94.2105 40.2526C93.9176 40.3984 93.5736 40.4712 93.1786 40.4712Z" fill="#181A18"/>
<path d="M96.8888 42.2494C96.7434 42.2494 96.611 42.2374 96.4916 42.2135C96.3723 42.1917 96.2833 42.1678 96.2247 42.1417L96.4591 41.3424C96.637 41.3902 96.7955 41.4109 96.9344 41.4043C97.0732 41.3978 97.1959 41.3456 97.3022 41.2477C97.4107 41.1499 97.5062 40.99 97.5887 40.7681L97.7091 40.4353L95.8797 35.3587H96.9213L98.1876 39.2477H98.2397L99.506 35.3587H100.551L98.4904 41.0389C98.3949 41.2999 98.2733 41.5207 98.1258 41.7012C97.9782 41.884 97.8024 42.021 97.5984 42.1123C97.3944 42.2037 97.1579 42.2494 96.8888 42.2494Z" fill="#181A18"/>
<path d="M103.892 40.3701V35.3587H104.826V36.1743H104.888C104.992 35.8981 105.162 35.6828 105.399 35.5283C105.635 35.3717 105.919 35.2934 106.248 35.2934C106.583 35.2934 106.863 35.3717 107.088 35.5283C107.316 35.6849 107.484 35.9003 107.593 36.1743H107.645C107.764 35.9068 107.954 35.6936 108.215 35.5349C108.475 35.3739 108.785 35.2934 109.146 35.2934C109.599 35.2934 109.969 35.4359 110.256 35.7208C110.544 36.0058 110.689 36.4354 110.689 37.0096V40.3701H109.715V37.1009C109.715 36.7616 109.623 36.5158 109.439 36.3636C109.254 36.2113 109.034 36.1352 108.778 36.1352C108.461 36.1352 108.215 36.2331 108.039 36.4288C107.863 36.6224 107.775 36.8715 107.775 37.176V40.3701H106.805V37.0389C106.805 36.7671 106.72 36.5485 106.551 36.3831C106.382 36.2178 106.162 36.1352 105.89 36.1352C105.706 36.1352 105.536 36.1841 105.379 36.282C105.225 36.3777 105.1 36.5115 105.005 36.6833C104.912 36.8551 104.865 37.0542 104.865 37.2804V40.3701H103.892Z" fill="#181A18"/>
<path d="M113.448 40.481C113.131 40.481 112.845 40.4223 112.589 40.3048C112.333 40.1852 112.13 40.0123 111.98 39.7861C111.833 39.5599 111.759 39.2825 111.759 38.9541C111.759 38.6713 111.813 38.4386 111.922 38.2559C112.03 38.0732 112.176 37.9286 112.361 37.822C112.545 37.7154 112.752 37.6349 112.979 37.5805C113.207 37.5262 113.44 37.4848 113.676 37.4566C113.976 37.4218 114.219 37.3935 114.405 37.3717C114.592 37.3478 114.728 37.3097 114.812 37.2575C114.897 37.2053 114.939 37.1205 114.939 37.003V36.9802C114.939 36.6953 114.859 36.4745 114.698 36.3179C114.54 36.1613 114.303 36.083 113.989 36.083C113.661 36.083 113.403 36.1559 113.214 36.3016C113.027 36.4451 112.898 36.605 112.826 36.7812L111.912 36.5724C112.02 36.2679 112.179 36.0221 112.387 35.835C112.598 35.6458 112.839 35.5088 113.113 35.4239C113.386 35.3369 113.674 35.2934 113.976 35.2934C114.175 35.2934 114.387 35.3174 114.61 35.3652C114.836 35.4109 115.047 35.4957 115.242 35.6197C115.439 35.7437 115.601 35.9209 115.727 36.1515C115.853 36.3799 115.916 36.6768 115.916 37.0422V40.3701H114.965V39.6849H114.926C114.863 39.8111 114.769 39.9351 114.643 40.0569C114.517 40.1787 114.355 40.2798 114.158 40.3603C113.96 40.4408 113.724 40.481 113.448 40.481ZM113.66 39.698C113.929 39.698 114.159 39.6447 114.35 39.5381C114.543 39.4315 114.69 39.2923 114.789 39.1205C114.891 38.9465 114.942 38.7605 114.942 38.5626V37.9166C114.908 37.9514 114.84 37.984 114.741 38.0145C114.643 38.0427 114.531 38.0678 114.405 38.0895C114.279 38.1091 114.157 38.1276 114.037 38.145C113.918 38.1602 113.818 38.1732 113.738 38.1841C113.549 38.208 113.377 38.2483 113.22 38.3048C113.066 38.3614 112.943 38.443 112.849 38.5495C112.758 38.6539 112.713 38.7931 112.713 38.9672C112.713 39.2086 112.802 39.3913 112.979 39.5153C113.157 39.6371 113.384 39.698 113.66 39.698Z" fill="#181A18"/>
<path d="M119.084 40.468C118.68 40.468 118.32 40.3647 118.003 40.158C117.688 39.9492 117.441 39.6523 117.261 39.2673C117.083 38.8802 116.994 38.4158 116.994 37.8742C116.994 37.3326 117.084 36.8693 117.264 36.4843C117.446 36.0993 117.696 35.8046 118.013 35.6001C118.33 35.3957 118.689 35.2934 119.09 35.2934C119.401 35.2934 119.65 35.3456 119.839 35.45C120.03 35.5523 120.178 35.6719 120.282 35.8089C120.388 35.946 120.471 36.0667 120.529 36.1711H120.588V33.6882H121.561V40.3701H120.611V39.5903H120.529C120.471 39.6969 120.386 39.8187 120.275 39.9557C120.167 40.0928 120.017 40.2124 119.826 40.3146C119.635 40.4169 119.388 40.468 119.084 40.468ZM119.299 39.636C119.579 39.636 119.815 39.562 120.008 39.4141C120.204 39.2641 120.351 39.0563 120.451 38.791C120.553 38.5256 120.604 38.2168 120.604 37.8644C120.604 37.5164 120.554 37.2119 120.454 36.9508C120.354 36.6898 120.208 36.4865 120.015 36.3407C119.822 36.195 119.583 36.1221 119.299 36.1221C119.006 36.1221 118.762 36.1983 118.566 36.3505C118.371 36.5028 118.223 36.7105 118.124 36.9737C118.026 37.2369 117.977 37.5338 117.977 37.8644C117.977 38.1993 118.027 38.5006 118.127 38.7681C118.227 39.0357 118.374 39.2477 118.57 39.4043C118.767 39.5588 119.01 39.636 119.299 39.636Z" fill="#181A18"/>
<path d="M125.105 40.4712C124.613 40.4712 124.188 40.3657 123.832 40.1548C123.479 39.9416 123.205 39.6425 123.012 39.2575C122.821 38.8704 122.726 38.4169 122.726 37.897C122.726 37.3837 122.821 36.9313 123.012 36.5398C123.205 36.1482 123.474 35.8426 123.819 35.623C124.167 35.4033 124.572 35.2934 125.037 35.2934C125.319 35.2934 125.592 35.3402 125.857 35.4337C126.122 35.5273 126.36 35.6741 126.57 35.8742C126.781 36.0743 126.947 36.3342 127.068 36.6539C127.19 36.9715 127.25 37.3576 127.25 37.8122V38.158H123.276V37.4272H126.297C126.297 37.1705 126.245 36.9432 126.14 36.7453C126.036 36.5452 125.89 36.3875 125.701 36.2722C125.514 36.1569 125.295 36.0993 125.043 36.0993C124.77 36.0993 124.531 36.1667 124.327 36.3016C124.125 36.4343 123.969 36.6083 123.858 36.8236C123.75 37.0368 123.696 37.2684 123.696 37.5185V38.0895C123.696 38.4245 123.754 38.7094 123.872 38.9443C123.991 39.1792 124.157 39.3587 124.37 39.4827C124.582 39.6045 124.831 39.6654 125.115 39.6654C125.299 39.6654 125.468 39.6393 125.62 39.5871C125.771 39.5327 125.903 39.4522 126.013 39.3456C126.124 39.239 126.209 39.1074 126.267 38.9508L127.189 39.1172C127.115 39.3891 126.982 39.6273 126.791 39.8318C126.603 40.034 126.365 40.1917 126.079 40.3048C125.794 40.4158 125.47 40.4712 125.105 40.4712Z" fill="#181A18"/>
<path d="M132.911 40.4712C132.419 40.4712 131.994 40.3657 131.639 40.1548C131.285 39.9416 131.011 39.6425 130.818 39.2575C130.627 38.8704 130.532 38.4169 130.532 37.897C130.532 37.3837 130.627 36.9313 130.818 36.5398C131.011 36.1482 131.28 35.8426 131.626 35.623C131.973 35.4033 132.379 35.2934 132.843 35.2934C133.125 35.2934 133.399 35.3402 133.663 35.4337C133.928 35.5273 134.166 35.6741 134.376 35.8742C134.587 36.0743 134.753 36.3342 134.874 36.6539C134.996 36.9715 135.057 37.3576 135.057 37.8122V38.158H131.082V37.4272H134.103C134.103 37.1705 134.051 36.9432 133.946 36.7453C133.842 36.5452 133.696 36.3875 133.507 36.2722C133.32 36.1569 133.101 36.0993 132.849 36.0993C132.576 36.0993 132.337 36.1667 132.133 36.3016C131.931 36.4343 131.775 36.6083 131.665 36.8236C131.556 37.0368 131.502 37.2684 131.502 37.5185V38.0895C131.502 38.4245 131.56 38.7094 131.678 38.9443C131.797 39.1792 131.963 39.3587 132.176 39.4827C132.388 39.6045 132.637 39.6654 132.921 39.6654C133.106 39.6654 133.274 39.6393 133.426 39.5871C133.578 39.5327 133.709 39.4522 133.82 39.3456C133.93 39.239 134.015 39.1074 134.073 38.9508L134.995 39.1172C134.921 39.3891 134.789 39.6273 134.598 39.8318C134.409 40.034 134.171 40.1917 133.885 40.3048C133.6 40.4158 133.276 40.4712 132.911 40.4712Z" fill="#181A18"/>
<path d="M137.592 40.481C137.275 40.481 136.988 40.4223 136.732 40.3048C136.476 40.1852 136.273 40.0123 136.123 39.7861C135.976 39.5599 135.902 39.2825 135.902 38.9541C135.902 38.6713 135.956 38.4386 136.065 38.2559C136.173 38.0732 136.32 37.9286 136.504 37.822C136.689 37.7154 136.895 37.6349 137.123 37.5805C137.351 37.5262 137.583 37.4848 137.819 37.4566C138.119 37.4218 138.362 37.3935 138.549 37.3717C138.735 37.3478 138.871 37.3097 138.956 37.2575C139.04 37.2053 139.082 37.1205 139.082 37.003V36.9802C139.082 36.6953 139.002 36.4745 138.842 36.3179C138.683 36.1613 138.447 36.083 138.132 36.083C137.804 36.083 137.546 36.1559 137.357 36.3016C137.171 36.4451 137.041 36.605 136.97 36.7812L136.055 36.5724C136.164 36.2679 136.322 36.0221 136.53 35.835C136.741 35.6458 136.983 35.5088 137.256 35.4239C137.53 35.3369 137.817 35.2934 138.119 35.2934C138.319 35.2934 138.53 35.3174 138.754 35.3652C138.979 35.4109 139.19 35.4957 139.385 35.6197C139.583 35.7437 139.744 35.9209 139.87 36.1515C139.996 36.3799 140.059 36.6768 140.059 37.0422V40.3701H139.108V39.6849H139.069C139.007 39.8111 138.912 39.9351 138.786 40.0569C138.66 40.1787 138.499 40.2798 138.301 40.3603C138.104 40.4408 137.867 40.481 137.592 40.481ZM137.803 39.698C138.072 39.698 138.302 39.6447 138.493 39.5381C138.686 39.4315 138.833 39.2923 138.933 39.1205C139.035 38.9465 139.086 38.7605 139.086 38.5626V37.9166C139.051 37.9514 138.984 37.984 138.884 38.0145C138.786 38.0427 138.674 38.0678 138.549 38.0895C138.423 38.1091 138.3 38.1276 138.181 38.145C138.061 38.1602 137.962 38.1732 137.881 38.1841C137.692 38.208 137.52 38.2483 137.364 38.3048C137.21 38.3614 137.086 38.443 136.993 38.5495C136.901 38.6539 136.856 38.7931 136.856 38.9672C136.856 39.2086 136.945 39.3913 137.123 39.5153C137.301 39.6371 137.528 39.698 137.803 39.698Z" fill="#181A18"/>
<path d="M145.102 36.5822L144.22 36.7388C144.183 36.6257 144.125 36.518 144.044 36.4158C143.966 36.3135 143.86 36.2298 143.725 36.1646C143.591 36.0993 143.423 36.0667 143.221 36.0667C142.945 36.0667 142.715 36.1287 142.531 36.2526C142.346 36.3744 142.254 36.5321 142.254 36.7257C142.254 36.8932 142.316 37.0281 142.439 37.1303C142.563 37.2325 142.763 37.3163 143.038 37.3815L143.833 37.5642C144.293 37.6708 144.636 37.835 144.861 38.0569C145.087 38.2787 145.2 38.5669 145.2 38.9215C145.2 39.2216 145.113 39.4892 144.939 39.7241C144.768 39.9568 144.528 40.1395 144.22 40.2722C143.914 40.4049 143.559 40.4712 143.156 40.4712C142.596 40.4712 142.139 40.3516 141.785 40.1123C141.431 39.8709 141.214 39.5283 141.134 39.0846L142.075 38.9411C142.133 39.1868 142.254 39.3728 142.436 39.499C142.618 39.6229 142.856 39.6849 143.149 39.6849C143.468 39.6849 143.723 39.6186 143.914 39.4859C144.105 39.3511 144.201 39.1868 144.201 38.9933C144.201 38.8367 144.142 38.7051 144.025 38.5985C143.91 38.4919 143.733 38.4114 143.494 38.357L142.648 38.1711C142.181 38.0645 141.836 37.8948 141.613 37.6621C141.391 37.4294 141.281 37.1346 141.281 36.7779C141.281 36.4821 141.363 36.2233 141.528 36.0014C141.693 35.7796 141.921 35.6066 142.212 35.4827C142.502 35.3565 142.835 35.2934 143.211 35.2934C143.751 35.2934 144.177 35.4109 144.487 35.6458C144.797 35.8785 145.002 36.1907 145.102 36.5822Z" fill="#181A18"/>
<path d="M146.885 42.2494C146.74 42.2494 146.607 42.2374 146.488 42.2135C146.369 42.1917 146.28 42.1678 146.221 42.1417L146.456 41.3424C146.634 41.3902 146.792 41.4109 146.931 41.4043C147.07 41.3978 147.192 41.3456 147.299 41.2477C147.407 41.1499 147.503 40.99 147.585 40.7681L147.706 40.4353L145.876 35.3587H146.918L148.184 39.2477H148.236L149.502 35.3587H150.547L148.487 41.0389C148.391 41.2999 148.27 41.5207 148.122 41.7012C147.975 41.884 147.799 42.021 147.595 42.1123C147.391 42.2037 147.154 42.2494 146.885 42.2494Z" fill="#181A18"/>
<path fill-rule="evenodd" clip-rule="evenodd" d="M38.0002 4.47009L38.2726 17.8858L35.485 14.9483L31.9874 12.5628L38.0002 4.47009ZM33.9998 12.3307L36.7308 14.6436L36.6124 8.81436L33.9998 12.3307Z" fill="#181A18"/>
<path d="M9.69542 6.99331L14.2272 12.6253L9.86871 16.6163L9.69542 6.99331Z" fill="#181A18"/>
<path fill-rule="evenodd" clip-rule="evenodd" d="M42.1968 27.8013C41.2173 23.7957 39.7759 20.1718 37.9916 17.9437C34.2942 13.3268 29.2822 10.7498 24.0799 10.677C18.8775 10.6042 13.7956 13.0399 9.97115 17.5515C8.12541 19.7289 6.58365 23.311 5.49292 27.2876C4.40958 31.2373 3.81098 35.4281 3.76522 38.7125C3.75487 39.4553 3.86632 39.8898 3.99366 40.1388C4.10221 40.3511 4.24616 40.4802 4.48421 40.5734C4.76032 40.6815 5.18384 40.7456 5.82094 40.7197C6.45009 40.6941 7.20778 40.585 8.11064 40.4106C8.97941 40.2428 9.96565 40.016 11.0548 39.7656C14.4141 38.9931 18.7522 37.9956 23.6404 37.8089C29.3674 37.5902 34.2455 38.9578 37.7873 39.9508C38.3114 40.0977 38.8063 40.2365 39.2703 40.3606C40.1807 40.6043 40.9455 40.7856 41.5878 40.8788C42.242 40.9736 42.6706 40.9608 42.9447 40.8908C43.168 40.8338 43.2716 40.7474 43.3561 40.6036C43.4698 40.41 43.5951 40.0195 43.6055 39.2701C43.6513 35.9857 43.1697 31.7798 42.1968 27.8013ZM38.9122 17.203C42.8025 22.0608 44.8806 32.4951 44.786 39.2866C44.7325 43.1237 42.0605 42.3759 37.4541 41.0866C33.9073 40.0939 29.2136 38.7802 23.6854 38.9913C18.9209 39.1733 14.7498 40.1319 11.4018 40.9014C5.81966 42.1843 2.52562 42.9413 2.58477 38.696C2.67939 31.9044 5.04742 21.5324 9.07146 16.7854C13.0955 12.0384 18.5001 9.41557 24.0963 9.49389C29.6926 9.57221 35.022 12.3453 38.9122 17.203Z" fill="#181A18"/>
<path d="M17.9202 28.9052C17.9202 28.9052 13.739 23.9171 15.0612 17.7182C16.051 13.0773 20.0836 11.333 22.1556 10.9182C23.4035 10.6684 28.306 10.1588 28.306 10.1588C28.306 10.1588 27.2714 9.90196 26.9759 9.84464C19.2082 8.33802 12.798 12.0411 8.77399 16.7881C4.74995 21.5351 2.38192 31.9072 2.2873 38.6987C2.19268 45.4903 10.0875 40.6865 14.6628 40.0948C19.9754 38.6987 24.2543 36.7163 40.8347 42.0409C48.9674 44.6527 42.2468 24.1867 42.2683 24.7476C42.3298 26.3508 42.1354 27.115 41.9951 28.2991C41.8631 30.8144 38.9805 33.745 37.6166 34.6539C29.7581 39.8909 23.2437 37.496 20.9159 36.3431C16.0066 33.9118 17.9202 28.9052 17.9202 28.9052Z" fill="#181A18"/>
<path d="M33.3272 22.5004C33.1788 23.5952 32.8596 24.633 32.2902 25.5966C30.5302 28.5569 26.7792 29.9259 23.5655 28.7943C22.3919 28.3824 21.3945 27.707 20.5146 26.8504C19.9778 26.2138 19.4893 25.5458 19.1616 24.7679C18.0717 22.16 18.275 19.6547 19.9193 17.3533C21.5049 15.1346 23.7451 14.1315 26.4372 14.2867C28.5858 14.4082 30.3611 15.3774 31.711 17.0621C32.98 18.6397 33.4749 20.4754 33.3272 22.5004ZM27.5401 18.6236C25.5405 17.5613 23.018 18.7077 22.5464 20.8948C21.9684 23.5519 24.2924 25.7866 26.9062 25.0842C28.2835 24.7131 29.3718 23.3338 29.4078 21.9134C29.4107 21.737 29.3925 21.679 29.2001 21.7724C28.9277 21.8967 28.6318 21.8955 28.3504 21.7887C27.854 21.6018 27.5801 21.2321 27.5411 20.7022C27.5015 20.2045 27.7699 19.7465 28.2729 19.5326C28.5579 19.4149 28.486 19.3369 28.3231 19.1869C28.0786 18.962 27.8207 18.7785 27.5401 18.6236Z" fill="#181A18"/>
<path d="M28.377 32.0584C25.1351 32.8181 23.9039 32.5294 22.3289 32.3913C22.036 32.853 26.4852 36.359 32.3705 33.5126C38.1956 30.6954 37.7791 26.0782 37.638 26.2324C35.7325 28.3151 34.7041 29.0609 33.5281 29.8077L32.6587 30.2918L30.8806 31.2355L29.4081 31.7562C29.4081 31.7562 28.8191 31.9548 28.377 32.0584Z" fill="#181A18"/>
</svg>
